<mxfile host="app.diagrams.net" modified="2023-09-18T16:33:50.304Z" agent="Mozilla/5.0 (Macintosh; Intel Mac OS X 10_15_7) AppleWebKit/537.36 (KHTML, like Gecko) Chrome/116.0.0.0 Safari/537.36" etag="PcoqCKa76pELva3-dKOx" version="21.7.5" type="github">
  <diagram name="Page-1" id="WL2jBlgAj-Xfjlgo9BCT">
    <mxGraphModel dx="2120" dy="1356" grid="1" gridSize="10" guides="1" tooltips="1" connect="1" arrows="1" fold="1" page="1" pageScale="1" pageWidth="850" pageHeight="1100" math="0" shadow="0">
      <root>
        <mxCell id="0" />
        <mxCell id="1" parent="0" />
        <mxCell id="SpvRQxd2-rjbcXfiuzuW-28" value="" style="group" vertex="1" connectable="0" parent="1">
          <mxGeometry x="100" y="250" width="580" height="530" as="geometry" />
        </mxCell>
        <mxCell id="SpvRQxd2-rjbcXfiuzuW-1" value="API" style="rounded=0;whiteSpace=wrap;html=1;fillColor=#ffe6cc;strokeColor=#d79b00;" vertex="1" parent="SpvRQxd2-rjbcXfiuzuW-28">
          <mxGeometry x="150" width="120" height="60" as="geometry" />
        </mxCell>
        <mxCell id="SpvRQxd2-rjbcXfiuzuW-2" value="Local" style="rounded=0;whiteSpace=wrap;html=1;fillColor=#ffe6cc;strokeColor=#d79b00;" vertex="1" parent="SpvRQxd2-rjbcXfiuzuW-28">
          <mxGeometry x="310" width="120" height="60" as="geometry" />
        </mxCell>
        <mxCell id="SpvRQxd2-rjbcXfiuzuW-3" value="Firebase" style="rounded=0;whiteSpace=wrap;html=1;fillColor=#ffe6cc;strokeColor=#d79b00;" vertex="1" parent="SpvRQxd2-rjbcXfiuzuW-28">
          <mxGeometry width="120" height="60" as="geometry" />
        </mxCell>
        <mxCell id="SpvRQxd2-rjbcXfiuzuW-4" value="Geolacator" style="rounded=0;whiteSpace=wrap;html=1;fillColor=#ffe6cc;strokeColor=#d79b00;" vertex="1" parent="SpvRQxd2-rjbcXfiuzuW-28">
          <mxGeometry x="460" width="120" height="60" as="geometry" />
        </mxCell>
        <mxCell id="SpvRQxd2-rjbcXfiuzuW-7" style="edgeStyle=orthogonalEdgeStyle;rounded=0;orthogonalLoop=1;jettySize=auto;html=1;entryX=0.5;entryY=1;entryDx=0;entryDy=0;" edge="1" parent="SpvRQxd2-rjbcXfiuzuW-28" source="SpvRQxd2-rjbcXfiuzuW-5" target="SpvRQxd2-rjbcXfiuzuW-3">
          <mxGeometry relative="1" as="geometry">
            <Array as="points">
              <mxPoint x="190" y="120" />
              <mxPoint x="60" y="120" />
            </Array>
          </mxGeometry>
        </mxCell>
        <mxCell id="SpvRQxd2-rjbcXfiuzuW-8" style="edgeStyle=orthogonalEdgeStyle;rounded=0;orthogonalLoop=1;jettySize=auto;html=1;" edge="1" parent="SpvRQxd2-rjbcXfiuzuW-28" source="SpvRQxd2-rjbcXfiuzuW-5" target="SpvRQxd2-rjbcXfiuzuW-1">
          <mxGeometry relative="1" as="geometry" />
        </mxCell>
        <mxCell id="SpvRQxd2-rjbcXfiuzuW-9" style="edgeStyle=orthogonalEdgeStyle;rounded=0;orthogonalLoop=1;jettySize=auto;html=1;entryX=0.5;entryY=1;entryDx=0;entryDy=0;" edge="1" parent="SpvRQxd2-rjbcXfiuzuW-28" source="SpvRQxd2-rjbcXfiuzuW-5" target="SpvRQxd2-rjbcXfiuzuW-2">
          <mxGeometry relative="1" as="geometry">
            <Array as="points">
              <mxPoint x="190" y="120" />
              <mxPoint x="370" y="120" />
            </Array>
          </mxGeometry>
        </mxCell>
        <mxCell id="SpvRQxd2-rjbcXfiuzuW-26" style="edgeStyle=orthogonalEdgeStyle;rounded=0;orthogonalLoop=1;jettySize=auto;html=1;dashed=1;dashPattern=8 8;" edge="1" parent="SpvRQxd2-rjbcXfiuzuW-28" source="SpvRQxd2-rjbcXfiuzuW-5">
          <mxGeometry relative="1" as="geometry">
            <mxPoint x="280" y="260" as="targetPoint" />
          </mxGeometry>
        </mxCell>
        <mxCell id="SpvRQxd2-rjbcXfiuzuW-5" value="Auth Repository" style="rounded=0;whiteSpace=wrap;html=1;fillColor=#dae8fc;strokeColor=#6c8ebf;" vertex="1" parent="SpvRQxd2-rjbcXfiuzuW-28">
          <mxGeometry x="130" y="140" width="120" height="60" as="geometry" />
        </mxCell>
        <mxCell id="SpvRQxd2-rjbcXfiuzuW-10" style="edgeStyle=orthogonalEdgeStyle;rounded=0;orthogonalLoop=1;jettySize=auto;html=1;entryX=0.5;entryY=1;entryDx=0;entryDy=0;" edge="1" parent="SpvRQxd2-rjbcXfiuzuW-28" source="SpvRQxd2-rjbcXfiuzuW-6" target="SpvRQxd2-rjbcXfiuzuW-1">
          <mxGeometry relative="1" as="geometry">
            <Array as="points">
              <mxPoint x="380" y="120" />
              <mxPoint x="210" y="120" />
            </Array>
          </mxGeometry>
        </mxCell>
        <mxCell id="SpvRQxd2-rjbcXfiuzuW-11" style="edgeStyle=orthogonalEdgeStyle;rounded=0;orthogonalLoop=1;jettySize=auto;html=1;entryX=0.5;entryY=1;entryDx=0;entryDy=0;" edge="1" parent="SpvRQxd2-rjbcXfiuzuW-28" source="SpvRQxd2-rjbcXfiuzuW-6" target="SpvRQxd2-rjbcXfiuzuW-4">
          <mxGeometry relative="1" as="geometry">
            <Array as="points">
              <mxPoint x="380" y="120" />
              <mxPoint x="520" y="120" />
            </Array>
          </mxGeometry>
        </mxCell>
        <mxCell id="SpvRQxd2-rjbcXfiuzuW-6" value="Job Repository" style="rounded=0;whiteSpace=wrap;html=1;fillColor=#dae8fc;strokeColor=#6c8ebf;" vertex="1" parent="SpvRQxd2-rjbcXfiuzuW-28">
          <mxGeometry x="320" y="140" width="120" height="60" as="geometry" />
        </mxCell>
        <mxCell id="SpvRQxd2-rjbcXfiuzuW-12" value="Model" style="rounded=0;whiteSpace=wrap;html=1;fillColor=#d5e8d4;strokeColor=#82b366;" vertex="1" parent="SpvRQxd2-rjbcXfiuzuW-28">
          <mxGeometry x="220" y="260" width="120" height="60" as="geometry" />
        </mxCell>
        <mxCell id="SpvRQxd2-rjbcXfiuzuW-25" style="edgeStyle=orthogonalEdgeStyle;rounded=0;orthogonalLoop=1;jettySize=auto;html=1;dashed=1;dashPattern=8 8;" edge="1" parent="SpvRQxd2-rjbcXfiuzuW-28" source="SpvRQxd2-rjbcXfiuzuW-6" target="SpvRQxd2-rjbcXfiuzuW-12">
          <mxGeometry relative="1" as="geometry">
            <Array as="points">
              <mxPoint x="280" y="170" />
            </Array>
          </mxGeometry>
        </mxCell>
        <mxCell id="SpvRQxd2-rjbcXfiuzuW-16" style="edgeStyle=orthogonalEdgeStyle;rounded=0;orthogonalLoop=1;jettySize=auto;html=1;entryX=0.5;entryY=1;entryDx=0;entryDy=0;" edge="1" parent="SpvRQxd2-rjbcXfiuzuW-28" source="SpvRQxd2-rjbcXfiuzuW-14">
          <mxGeometry relative="1" as="geometry">
            <mxPoint x="280" y="430" as="targetPoint" />
          </mxGeometry>
        </mxCell>
        <mxCell id="SpvRQxd2-rjbcXfiuzuW-14" value="Job Order Screen" style="rounded=0;whiteSpace=wrap;html=1;fillColor=#e1d5e7;strokeColor=#9673a6;" vertex="1" parent="SpvRQxd2-rjbcXfiuzuW-28">
          <mxGeometry x="220" y="470" width="120" height="60" as="geometry" />
        </mxCell>
        <mxCell id="SpvRQxd2-rjbcXfiuzuW-21" style="edgeStyle=orthogonalEdgeStyle;rounded=0;orthogonalLoop=1;jettySize=auto;html=1;" edge="1" parent="SpvRQxd2-rjbcXfiuzuW-28" source="SpvRQxd2-rjbcXfiuzuW-15" target="SpvRQxd2-rjbcXfiuzuW-5">
          <mxGeometry relative="1" as="geometry">
            <Array as="points">
              <mxPoint x="170" y="400" />
            </Array>
          </mxGeometry>
        </mxCell>
        <mxCell id="SpvRQxd2-rjbcXfiuzuW-22" style="edgeStyle=orthogonalEdgeStyle;rounded=0;orthogonalLoop=1;jettySize=auto;html=1;" edge="1" parent="SpvRQxd2-rjbcXfiuzuW-28" source="SpvRQxd2-rjbcXfiuzuW-15" target="SpvRQxd2-rjbcXfiuzuW-6">
          <mxGeometry relative="1" as="geometry">
            <Array as="points">
              <mxPoint x="380" y="400" />
            </Array>
          </mxGeometry>
        </mxCell>
        <mxCell id="SpvRQxd2-rjbcXfiuzuW-15" value="Job Order Bloc" style="rounded=0;whiteSpace=wrap;html=1;fillColor=#f8cecc;strokeColor=#b85450;" vertex="1" parent="SpvRQxd2-rjbcXfiuzuW-28">
          <mxGeometry x="220" y="370" width="120" height="60" as="geometry" />
        </mxCell>
        <mxCell id="SpvRQxd2-rjbcXfiuzuW-27" style="edgeStyle=orthogonalEdgeStyle;rounded=0;orthogonalLoop=1;jettySize=auto;html=1;dashed=1;dashPattern=8 8;" edge="1" parent="SpvRQxd2-rjbcXfiuzuW-28" source="SpvRQxd2-rjbcXfiuzuW-12" target="SpvRQxd2-rjbcXfiuzuW-15">
          <mxGeometry relative="1" as="geometry" />
        </mxCell>
      </root>
    </mxGraphModel>
  </diagram>
</mxfile>
